<svg width="528" height="376" viewBox="0 0 528 376" fill="none" xmlns="http://www.w3.org/2000/svg">
<mask id="path-1-inside-1_32_2" fill="white">
<path d="M119.111 375.925C89.7547 375.925 65.8438 368.527 47.3778 353.73C28.9119 338.815 16.4238 317.331 9.91335 289.277C3.52131 261.105 3.63968 227.191 10.2685 187.537C16.7789 147.883 27.965 114.147 43.8267 86.3295C59.6884 58.3939 79.2789 37.0871 102.598 22.4091C125.917 7.73105 152.077 0.392032 181.078 0.392032C210.197 0.392032 233.99 7.73105 252.456 22.4091C271.04 37.0871 283.647 58.3939 290.276 86.3295C296.904 114.147 296.904 147.883 290.276 187.537C283.647 227.191 272.402 261.105 256.54 289.277C240.796 317.331 221.206 338.815 197.768 353.73C174.449 368.527 148.23 375.925 119.111 375.925ZM128.344 320.349C151.071 320.349 170.839 309.104 187.648 286.614C204.456 264.123 216.53 231.098 223.869 187.537C228.723 158.654 229.729 134.388 226.888 114.739C224.165 95.089 218.128 80.2926 208.777 70.3494C199.426 60.2879 187.233 55.2571 172.2 55.2571C149.591 55.2571 129.823 66.5024 112.896 88.9929C95.9692 111.365 83.8954 144.213 76.6747 187.537C71.8215 216.656 70.7562 241.1 73.4787 260.868C76.2012 280.518 82.2382 295.373 91.5895 305.435C100.941 315.378 113.192 320.349 128.344 320.349ZM527.358 5.36363L466.989 369H401.115L450.831 69.4616H448.701L354.596 123.794L364.539 63.4247L464.681 5.36363H527.358Z"/>
</mask>
<path d="M47.3778 353.73L42.9795 359.176L42.9901 359.184L43.0007 359.193L47.3778 353.73ZM9.91335 289.277L3.08686 290.826L3.09067 290.843L3.09456 290.859L9.91335 289.277ZM10.2685 187.537L17.1727 188.691L17.1743 188.681L17.176 188.671L10.2685 187.537ZM43.8267 86.3295L49.9076 89.7969L49.9139 89.7858L43.8267 86.3295ZM102.598 22.4091L106.327 28.3332L106.327 28.3332L102.598 22.4091ZM252.456 22.4091L248.1 27.8889L248.109 27.8956L248.117 27.9024L252.456 22.4091ZM290.276 86.3295L283.465 87.9457L283.466 87.9522L290.276 86.3295ZM290.276 187.537L283.371 186.383L283.371 186.383L290.276 187.537ZM256.54 289.277L250.44 285.843L250.435 285.851L256.54 289.277ZM197.768 353.73L201.519 359.641L201.527 359.636L197.768 353.73ZM223.869 187.537L230.772 188.7L230.773 188.697L223.869 187.537ZM226.888 114.739L219.954 115.699L219.957 115.72L219.96 115.74L226.888 114.739ZM208.777 70.3494L203.65 75.1149L203.664 75.13L203.678 75.1451L208.777 70.3494ZM112.896 88.9929L118.479 93.2165L118.484 93.2094L118.489 93.2023L112.896 88.9929ZM76.6747 187.537L69.77 186.386L69.77 186.386L76.6747 187.537ZM73.4787 260.868L66.5442 261.823L66.5449 261.829L73.4787 260.868ZM91.5895 305.435L86.4621 310.2L86.4762 310.215L86.4903 310.23L91.5895 305.435ZM119.111 368.925C90.9533 368.925 68.7037 361.848 51.755 348.267L43.0007 359.193C62.9838 375.205 88.5562 382.925 119.111 382.925V368.925ZM51.7762 348.285C34.768 334.547 22.967 314.561 16.7321 287.695L3.09456 290.859C9.88054 320.101 23.0559 343.084 42.9795 359.176L51.7762 348.285ZM16.7398 287.728C10.6114 260.718 10.6392 227.775 17.1727 188.691L3.36427 186.383C-3.35987 226.608 -3.5688 261.492 3.08686 290.826L16.7398 287.728ZM17.176 188.671C23.5846 149.637 34.5478 116.734 49.9076 89.7969L37.7458 82.8621C21.3821 111.56 9.97315 146.129 3.36094 186.403L17.176 188.671ZM49.9139 89.7858C65.3002 62.6876 84.1363 42.3009 106.327 28.3332L98.8691 16.485C74.4215 31.8733 54.0767 54.1003 37.7395 82.8732L49.9139 89.7858ZM106.327 28.3332C128.469 14.3958 153.324 7.39203 181.078 7.39203V-6.60797C150.83 -6.60797 123.365 1.0663 98.8691 16.485L106.327 28.3332ZM181.078 7.39203C208.996 7.39203 231.141 14.4085 248.1 27.8889L256.812 16.9293C236.839 1.05361 211.399 -6.60797 181.078 -6.60797V7.39203ZM248.117 27.9024C265.218 41.4087 277.12 61.2078 283.465 87.9457L297.086 84.7134C290.173 55.5801 276.862 32.7655 256.795 16.9158L248.117 27.9024ZM283.466 87.9522C289.809 114.57 289.904 147.303 283.371 186.383L297.18 188.691C303.905 148.462 304 113.724 297.085 84.7069L283.466 87.9522ZM283.371 186.383C276.845 225.424 265.82 258.527 250.44 285.843L262.639 292.711C278.983 263.683 290.448 228.959 297.18 188.691L283.371 186.383ZM250.435 285.851C235.168 313.058 216.329 333.622 194.01 347.824L201.527 359.636C226.083 344.009 246.425 321.604 262.644 292.703L250.435 285.851ZM194.018 347.82C171.883 361.865 146.978 368.925 119.111 368.925V382.925C149.483 382.925 177.016 375.188 201.519 359.641L194.018 347.82ZM128.344 327.349C153.8 327.349 175.471 314.599 193.255 290.804L182.041 282.423C166.207 303.609 148.342 313.349 128.344 313.349V327.349ZM193.255 290.804C211.005 267.054 223.344 232.792 230.772 188.7L216.967 186.374C209.717 229.403 197.908 261.192 182.041 282.423L193.255 290.804ZM230.773 188.697C235.694 159.406 236.797 134.358 233.816 113.737L219.96 115.74C222.66 134.419 221.751 157.903 216.966 186.377L230.773 188.697ZM233.822 113.778C230.986 93.3138 224.58 76.9349 213.876 65.5538L203.678 75.1451C211.677 83.6503 217.344 96.8642 219.954 115.699L233.822 113.778ZM213.904 65.584C203.096 53.9543 188.974 48.2571 172.2 48.2571V62.2571C185.493 62.2571 195.756 66.6215 203.65 75.1149L213.904 65.584ZM172.2 48.2571C146.856 48.2571 125.193 61.0137 107.303 84.7835L118.489 93.2023C134.454 71.991 152.327 62.2571 172.2 62.2571V48.2571ZM107.314 84.7693C89.4247 108.413 77.0816 142.516 69.77 186.386L83.5795 188.688C90.7091 145.91 102.514 114.317 118.479 93.2165L107.314 84.7693ZM69.77 186.386C64.8507 215.902 63.6911 241.107 66.5442 261.823L80.4132 259.913C77.8212 241.093 78.7923 217.411 83.5795 188.688L69.77 186.386ZM66.5449 261.829C69.3809 282.297 75.7856 298.713 86.4621 310.2L96.7169 300.669C88.6907 292.033 83.0216 278.738 80.4125 259.907L66.5449 261.829ZM86.4903 310.23C97.3175 321.743 111.496 327.349 128.344 327.349V313.349C114.888 313.349 104.564 309.013 96.6887 300.639L86.4903 310.23ZM527.358 5.36363L534.264 6.51004L535.616 -1.63637H527.358V5.36363ZM466.989 369V376H472.923L473.894 370.146L466.989 369ZM401.115 369L394.21 367.854L392.858 376H401.115V369ZM450.831 69.4616L457.737 70.6078L459.089 62.4616H450.831V69.4616ZM448.701 69.4616V62.4616H446.825L445.201 63.3995L448.701 69.4616ZM354.596 123.794L347.689 122.656L345.284 137.253L358.096 129.856L354.596 123.794ZM364.539 63.4247L361.028 57.3689L358.169 59.0265L357.632 62.2871L364.539 63.4247ZM464.681 5.36363V-1.63637H462.798L461.17 -0.692151L464.681 5.36363ZM520.453 4.21721L460.084 367.854L473.894 370.146L534.264 6.51004L520.453 4.21721ZM466.989 362H401.115V376H466.989V362ZM408.021 370.146L457.737 70.6078L443.926 68.3155L394.21 367.854L408.021 370.146ZM450.831 62.4616H448.701V76.4616H450.831V62.4616ZM445.201 63.3995L351.095 117.732L358.096 129.856L452.201 75.5238L445.201 63.3995ZM361.502 124.932L371.446 64.5623L357.632 62.2871L347.689 122.656L361.502 124.932ZM368.05 69.4805L468.192 11.4194L461.17 -0.692151L361.028 57.3689L368.05 69.4805ZM464.681 12.3636H527.358V-1.63637H464.681V12.3636Z" fill="#F7951E" mask="url(#path-1-inside-1_32_2)"/>
</svg>
