<svg width="612" height="376" viewBox="0 0 612 376" fill="none" xmlns="http://www.w3.org/2000/svg">
<mask id="path-1-inside-1_33_5" fill="white">
<path d="M119.111 375.925C89.7547 375.925 65.8438 368.527 47.3778 353.73C28.9119 338.815 16.4238 317.331 9.91335 289.277C3.52131 261.105 3.63968 227.191 10.2685 187.537C16.7789 147.883 27.965 114.147 43.8267 86.3295C59.6884 58.3939 79.2789 37.0871 102.598 22.4091C125.917 7.73105 152.077 0.392032 181.078 0.392032C210.197 0.392032 233.99 7.73105 252.456 22.4091C271.04 37.0871 283.647 58.3939 290.276 86.3295C296.904 114.147 296.904 147.883 290.276 187.537C283.647 227.191 272.402 261.105 256.54 289.277C240.796 317.331 221.206 338.815 197.768 353.73C174.449 368.527 148.23 375.925 119.111 375.925ZM128.344 320.349C151.071 320.349 170.839 309.104 187.648 286.614C204.456 264.123 216.53 231.098 223.869 187.537C228.723 158.654 229.729 134.388 226.888 114.739C224.165 95.089 218.128 80.2926 208.777 70.3494C199.426 60.2879 187.233 55.2571 172.2 55.2571C149.591 55.2571 129.823 66.5024 112.896 88.9929C95.9692 111.365 83.8954 144.213 76.6747 187.537C71.8215 216.656 70.7562 241.1 73.4787 260.868C76.2012 280.518 82.2382 295.373 91.5895 305.435C100.941 315.378 113.192 320.349 128.344 320.349ZM319.084 369L327.074 321.415L473.736 197.658C487.822 185.465 499.659 174.634 509.248 165.165C518.954 155.577 526.589 146.403 532.152 137.643C537.716 128.766 541.326 119.296 542.983 109.234C544.877 97.7524 543.93 87.8684 540.142 79.5824C536.355 71.2964 530.318 64.9635 522.032 60.5838C513.864 56.0857 503.98 53.8366 492.38 53.8366C480.424 53.8366 469.475 56.3224 459.532 61.294C449.588 66.1472 441.302 73.1311 434.674 82.2457C428.163 91.2419 423.902 101.895 421.89 114.206H359.212C363 91.1236 371.641 71.0596 385.135 54.0142C398.63 36.9687 415.498 23.7703 435.739 14.419C455.98 5.0677 478.116 0.392032 502.145 0.392032C526.53 0.392032 547.126 4.94932 563.935 14.0639C580.862 23.1785 593.054 35.6667 600.512 51.5284C608.087 67.3901 610.159 85.5009 606.726 105.861C604.359 119.473 599.446 132.849 591.989 145.989C584.65 159.009 573.109 173.569 557.365 189.668C541.622 205.648 520.078 225.001 492.735 247.729L419.759 311.472L419.226 313.957H577.429L568.374 369H319.084Z"/>
</mask>
<path d="M47.3778 353.73L42.9795 359.176L42.9901 359.184L43.0007 359.193L47.3778 353.73ZM9.91335 289.277L3.08686 290.826L3.09067 290.843L3.09456 290.859L9.91335 289.277ZM10.2685 187.537L17.1727 188.691L17.1743 188.681L17.176 188.671L10.2685 187.537ZM43.8267 86.3295L49.9076 89.7969L49.9139 89.7858L43.8267 86.3295ZM102.598 22.4091L106.327 28.3332L106.327 28.3332L102.598 22.4091ZM252.456 22.4091L248.1 27.8889L248.109 27.8956L248.117 27.9024L252.456 22.4091ZM290.276 86.3295L283.465 87.9457L283.466 87.9522L290.276 86.3295ZM290.276 187.537L283.371 186.383L283.371 186.383L290.276 187.537ZM256.54 289.277L250.44 285.843L250.435 285.851L256.54 289.277ZM197.768 353.73L201.519 359.641L201.527 359.636L197.768 353.73ZM223.869 187.537L230.772 188.7L230.773 188.697L223.869 187.537ZM226.888 114.739L219.954 115.699L219.957 115.72L219.96 115.74L226.888 114.739ZM208.777 70.3494L203.65 75.1149L203.664 75.13L203.678 75.1451L208.777 70.3494ZM112.896 88.9929L118.479 93.2165L118.484 93.2094L118.489 93.2023L112.896 88.9929ZM76.6747 187.537L69.77 186.386L69.77 186.386L76.6747 187.537ZM73.4787 260.868L66.5442 261.823L66.5449 261.829L73.4787 260.868ZM91.5895 305.435L86.4621 310.2L86.4762 310.215L86.4903 310.23L91.5895 305.435ZM119.111 368.925C90.9533 368.925 68.7037 361.848 51.755 348.267L43.0007 359.193C62.9838 375.205 88.5562 382.925 119.111 382.925V368.925ZM51.7762 348.285C34.768 334.547 22.967 314.561 16.7321 287.695L3.09456 290.859C9.88054 320.101 23.0559 343.084 42.9795 359.176L51.7762 348.285ZM16.7398 287.728C10.6114 260.718 10.6392 227.775 17.1727 188.691L3.36427 186.383C-3.35987 226.608 -3.5688 261.492 3.08686 290.826L16.7398 287.728ZM17.176 188.671C23.5846 149.637 34.5478 116.734 49.9076 89.7969L37.7458 82.8621C21.3821 111.56 9.97315 146.129 3.36094 186.403L17.176 188.671ZM49.9139 89.7858C65.3002 62.6876 84.1363 42.3009 106.327 28.3332L98.8691 16.485C74.4215 31.8733 54.0767 54.1003 37.7395 82.8732L49.9139 89.7858ZM106.327 28.3332C128.469 14.3958 153.324 7.39203 181.078 7.39203V-6.60797C150.83 -6.60797 123.365 1.0663 98.8691 16.485L106.327 28.3332ZM181.078 7.39203C208.996 7.39203 231.141 14.4085 248.1 27.8889L256.812 16.9293C236.839 1.05361 211.399 -6.60797 181.078 -6.60797V7.39203ZM248.117 27.9024C265.218 41.4087 277.12 61.2078 283.465 87.9457L297.086 84.7134C290.173 55.5801 276.862 32.7655 256.795 16.9158L248.117 27.9024ZM283.466 87.9522C289.809 114.57 289.904 147.303 283.371 186.383L297.18 188.691C303.905 148.462 304 113.724 297.085 84.7069L283.466 87.9522ZM283.371 186.383C276.845 225.424 265.82 258.527 250.44 285.843L262.639 292.711C278.983 263.683 290.448 228.959 297.18 188.691L283.371 186.383ZM250.435 285.851C235.168 313.058 216.329 333.622 194.01 347.824L201.527 359.636C226.083 344.009 246.425 321.604 262.644 292.703L250.435 285.851ZM194.018 347.82C171.883 361.865 146.978 368.925 119.111 368.925V382.925C149.483 382.925 177.016 375.188 201.519 359.641L194.018 347.82ZM128.344 327.349C153.8 327.349 175.471 314.599 193.255 290.804L182.041 282.423C166.207 303.609 148.342 313.349 128.344 313.349V327.349ZM193.255 290.804C211.005 267.054 223.344 232.792 230.772 188.7L216.967 186.374C209.717 229.403 197.908 261.192 182.041 282.423L193.255 290.804ZM230.773 188.697C235.694 159.406 236.797 134.358 233.816 113.737L219.96 115.74C222.66 134.419 221.751 157.903 216.966 186.377L230.773 188.697ZM233.822 113.778C230.986 93.3138 224.58 76.9349 213.876 65.5538L203.678 75.1451C211.677 83.6503 217.344 96.8642 219.954 115.699L233.822 113.778ZM213.904 65.584C203.096 53.9543 188.974 48.2571 172.2 48.2571V62.2571C185.493 62.2571 195.756 66.6215 203.65 75.1149L213.904 65.584ZM172.2 48.2571C146.856 48.2571 125.193 61.0137 107.303 84.7835L118.489 93.2023C134.454 71.991 152.327 62.2571 172.2 62.2571V48.2571ZM107.314 84.7693C89.4247 108.413 77.0816 142.516 69.77 186.386L83.5795 188.688C90.7091 145.91 102.514 114.317 118.479 93.2165L107.314 84.7693ZM69.77 186.386C64.8507 215.902 63.6911 241.107 66.5442 261.823L80.4132 259.913C77.8212 241.093 78.7923 217.411 83.5795 188.688L69.77 186.386ZM66.5449 261.829C69.3809 282.297 75.7856 298.713 86.4621 310.2L96.7169 300.669C88.6907 292.033 83.0216 278.738 80.4125 259.907L66.5449 261.829ZM86.4903 310.23C97.3175 321.743 111.496 327.349 128.344 327.349V313.349C114.888 313.349 104.564 309.013 96.6887 300.639L86.4903 310.23ZM319.084 369L312.181 367.841L310.811 376H319.084V369ZM327.074 321.415L322.56 316.065L320.596 317.722L320.171 320.256L327.074 321.415ZM473.736 197.658L478.25 203.008L478.284 202.979L478.317 202.95L473.736 197.658ZM509.248 165.165L514.166 170.145L514.167 170.145L509.248 165.165ZM532.152 137.643L538.061 141.396L538.073 141.379L538.084 141.361L532.152 137.643ZM542.983 109.234L536.077 108.095L536.076 108.097L542.983 109.234ZM522.032 60.5838L518.655 66.7154L518.707 66.7444L518.76 66.7725L522.032 60.5838ZM459.532 61.294L462.602 67.5847L462.632 67.57L462.662 67.555L459.532 61.294ZM434.674 82.2457L429.013 78.1285L429.008 78.1352L429.003 78.1418L434.674 82.2457ZM421.89 114.206V121.206H427.838L428.798 115.335L421.89 114.206ZM359.212 114.206L352.304 113.072L350.97 121.206H359.212V114.206ZM385.135 54.0142L379.647 49.6693L379.647 49.6693L385.135 54.0142ZM435.739 14.419L438.675 20.7737L438.675 20.7737L435.739 14.419ZM563.935 14.0639L560.598 20.2174L560.607 20.2223L560.616 20.2272L563.935 14.0639ZM600.512 51.5284L594.177 54.5067L594.186 54.526L594.195 54.5453L600.512 51.5284ZM606.726 105.861L613.623 107.06L613.626 107.042L613.629 107.025L606.726 105.861ZM591.989 145.989L585.901 142.533L585.896 142.542L585.891 142.552L591.989 145.989ZM557.365 189.668L562.352 194.58L562.361 194.571L562.37 194.562L557.365 189.668ZM492.735 247.729L488.26 242.345L488.194 242.4L488.13 242.457L492.735 247.729ZM419.759 311.472L415.154 306.2L413.402 307.73L412.914 310.005L419.759 311.472ZM419.226 313.957L412.382 312.491L410.567 320.957H419.226V313.957ZM577.429 313.957L584.336 315.094L585.675 306.957H577.429V313.957ZM568.374 369V376H574.316L575.281 370.136L568.374 369ZM325.988 370.159L333.978 322.574L320.171 320.256L312.181 367.841L325.988 370.159ZM331.589 326.765L478.25 203.008L469.222 192.308L322.56 316.065L331.589 326.765ZM478.317 202.95C492.479 190.693 504.437 179.755 514.166 170.145L504.329 160.184C494.882 169.514 483.165 180.238 469.155 192.365L478.317 202.95ZM514.167 170.145C524.138 160.295 532.143 150.715 538.061 141.396L526.243 133.89C521.035 142.091 513.77 150.858 504.328 160.185L514.167 170.145ZM538.084 141.361C544.126 131.718 548.078 121.375 549.89 110.372L536.076 108.097C534.574 117.217 531.305 125.813 526.221 133.926L538.084 141.361ZM549.89 110.374C551.948 97.8972 551.017 86.5336 546.509 76.6721L533.776 82.4927C536.844 89.2032 537.807 97.6075 536.077 108.095L549.89 110.374ZM546.509 76.6721C542.059 66.939 534.912 59.4741 525.303 54.3951L518.76 66.7725C525.724 70.453 530.65 75.6538 533.776 82.4927L546.509 76.6721ZM525.408 54.4522C515.983 49.2615 504.877 46.8366 492.38 46.8366V60.8366C503.083 60.8366 511.745 62.9099 518.655 66.7154L525.408 54.4522ZM492.38 46.8366C479.421 46.8366 467.389 49.5393 456.401 55.033L462.662 67.555C471.561 63.1055 481.427 60.8366 492.38 60.8366V46.8366ZM456.461 55.0034C445.47 60.3681 436.301 68.1065 429.013 78.1285L440.335 86.3629C446.304 78.1557 453.707 71.9264 462.602 67.5847L456.461 55.0034ZM429.003 78.1418C421.779 88.1235 417.147 99.8256 414.981 113.077L428.798 115.335C430.656 103.965 434.547 94.3604 440.344 86.3496L429.003 78.1418ZM421.89 107.206H359.212V121.206H421.89V107.206ZM366.12 115.34C369.73 93.339 377.923 74.4017 390.624 58.3591L379.647 49.6693C365.359 67.7175 356.27 88.9082 352.304 113.072L366.12 115.34ZM390.624 58.3591C403.419 42.197 419.404 29.6767 438.675 20.7737L432.803 8.0644C411.592 17.864 393.841 31.7405 379.647 49.6693L390.624 58.3591ZM438.675 20.7737C457.926 11.8798 479.05 7.39203 502.145 7.39203V-6.60797C477.182 -6.60797 454.035 -1.74443 432.803 8.0644L438.675 20.7737ZM502.145 7.39203C525.678 7.39203 545.058 11.7907 560.598 20.2174L567.272 7.91038C549.195 -1.89201 527.382 -6.60797 502.145 -6.60797V7.39203ZM560.616 20.2272C576.358 28.7033 587.42 40.1347 594.177 54.5067L606.847 48.5501C598.689 31.1986 585.367 17.6537 567.254 7.90061L560.616 20.2272ZM594.195 54.5453C601.047 68.8917 603.06 85.5029 599.824 104.697L613.629 107.025C617.258 85.4989 615.128 65.8886 606.828 48.5115L594.195 54.5453ZM599.83 104.661C597.613 117.41 592.998 130.029 585.901 142.533L598.077 149.444C605.894 135.67 611.105 121.536 613.623 107.06L599.83 104.661ZM585.891 142.552C578.962 154.846 567.87 168.914 552.361 184.773L562.37 194.562C578.348 178.224 590.338 163.173 598.087 149.426L585.891 142.552ZM552.379 184.755C536.864 200.503 515.516 219.692 488.26 242.345L497.209 253.112C524.641 230.311 546.38 210.792 562.352 194.58L552.379 184.755ZM488.13 242.457L415.154 306.2L424.364 316.744L497.34 253.001L488.13 242.457ZM412.914 310.005L412.382 312.491L426.071 315.424L426.603 312.938L412.914 310.005ZM419.226 320.957H577.429V306.957H419.226V320.957ZM570.522 312.821L561.467 367.864L575.281 370.136L584.336 315.094L570.522 312.821ZM568.374 362H319.084V376H568.374V362Z" fill="#F7951E" mask="url(#path-1-inside-1_33_5)"/>
</svg>
