<svg width="567" height="374" viewBox="0 0 567 374" fill="none" xmlns="http://www.w3.org/2000/svg">
<mask id="path-1-outside-1_32_4" maskUnits="userSpaceOnUse" x="-10" y="-10" width="587" height="394" fill="black">
<rect fill="white" x="-10" y="-10" width="587" height="394"/>
<path d="M127.25 373.972C100.498 373.972 77.7117 366.692 58.8906 352.132C40.0696 337.454 25.6875 316.206 15.7443 288.389C5.80114 260.454 0.829547 226.718 0.829547 187.182C0.829547 147.883 5.80114 114.324 15.7443 86.5071C25.8059 58.5715 40.2472 37.2647 59.0682 22.5866C78.0076 7.79023 100.735 0.392032 127.25 0.392032C153.765 0.392032 176.433 7.79023 195.254 22.5866C214.194 37.2647 228.635 58.5715 238.578 86.5071C248.64 114.324 253.67 147.883 253.67 187.182C253.67 226.718 248.699 260.454 238.756 288.389C228.812 316.206 214.43 337.454 195.609 352.132C176.788 366.692 154.002 373.972 127.25 373.972ZM127.25 334.909C153.765 334.909 174.362 322.125 189.04 296.557C203.718 270.989 211.057 234.53 211.057 187.182C211.057 155.695 207.683 128.884 200.936 106.749C194.307 84.6131 184.719 67.7453 172.172 56.1449C159.743 44.5445 144.769 38.7443 127.25 38.7443C100.972 38.7443 80.4342 51.706 65.6378 77.6293C50.8414 103.434 43.4432 139.952 43.4432 187.182C43.4432 218.669 46.7576 245.42 53.3864 267.438C60.0152 289.455 69.544 306.204 81.973 317.686C94.5204 329.168 109.613 334.909 127.25 334.909ZM444.011 373.972C420.574 373.972 399.681 369.947 381.334 361.898C363.105 353.848 348.604 342.662 337.832 328.339C327.179 313.898 321.379 297.149 320.432 278.091H365.176C366.123 289.81 370.148 299.93 377.25 308.453C384.352 316.857 393.644 323.368 405.126 327.984C416.608 332.601 429.333 334.909 443.301 334.909C458.926 334.909 472.776 332.187 484.849 326.741C496.923 321.296 506.393 313.721 513.259 304.014C520.124 294.308 523.557 283.062 523.557 270.278C523.557 256.902 520.242 245.125 513.614 234.945C506.985 224.646 497.278 216.597 484.494 210.797C471.71 204.997 456.085 202.097 437.619 202.097H408.5V163.034H437.619C452.061 163.034 464.726 160.43 475.616 155.222C486.625 150.013 495.207 142.674 501.362 133.205C507.636 123.735 510.773 112.608 510.773 99.8238C510.773 87.5132 508.05 76.8006 502.605 67.6861C497.16 58.5715 489.466 51.4692 479.523 46.3793C469.698 41.2893 458.098 38.7443 444.722 38.7443C432.174 38.7443 420.337 41.0526 409.21 45.669C398.202 50.1671 389.205 56.7367 382.222 65.3778C375.238 73.9006 371.45 84.1989 370.858 96.2727H328.244C328.955 77.2149 334.696 60.5246 345.467 46.2017C356.239 31.7604 370.325 20.5151 387.726 12.4659C405.245 4.41666 424.48 0.392032 445.432 0.392032C467.922 0.392032 487.217 4.94932 503.315 14.0639C519.414 23.0601 531.784 34.9564 540.425 49.7528C549.066 64.5492 553.386 80.5294 553.386 97.6932C553.386 118.171 548 135.631 537.229 150.072C526.575 164.514 512.075 174.516 493.727 180.08V182.92C516.691 186.708 534.625 196.474 547.527 212.217C560.429 227.842 566.881 247.196 566.881 270.278C566.881 290.046 561.495 307.802 550.723 323.545C540.07 339.17 525.51 351.481 507.044 360.477C488.578 369.473 467.567 373.972 444.011 373.972Z"/>
</mask>
<path d="M58.8906 352.132L52.7409 360.018L52.7564 360.03L52.7719 360.042L58.8906 352.132ZM15.7443 288.389L6.32329 291.742L6.32781 291.755L15.7443 288.389ZM15.7443 86.5071L6.33595 83.1185L6.33187 83.1298L6.32781 83.1412L15.7443 86.5071ZM59.0682 22.5866L65.2179 30.4721L65.2246 30.4669L59.0682 22.5866ZM195.254 22.5866L189.074 30.4481L189.101 30.4695L189.129 30.4908L195.254 22.5866ZM238.578 86.5071L229.157 89.8603L229.166 89.8844L229.174 89.9085L238.578 86.5071ZM238.756 288.389L248.172 291.755L248.177 291.742L238.756 288.389ZM195.609 352.132L201.728 360.042L201.744 360.03L201.759 360.018L195.609 352.132ZM189.04 296.557L180.367 291.578L180.367 291.578L189.04 296.557ZM200.936 106.749L191.356 109.617L191.363 109.641L191.371 109.664L200.936 106.749ZM172.172 56.1449L165.349 63.4554L165.366 63.4716L165.383 63.4876L172.172 56.1449ZM65.6378 77.6293L74.3129 82.6035L74.3178 82.5949L74.3227 82.5864L65.6378 77.6293ZM53.3864 267.438L43.8109 270.32L43.8109 270.32L53.3864 267.438ZM81.973 317.686L75.1873 325.031L75.2047 325.047L75.2221 325.063L81.973 317.686ZM127.25 363.972C102.423 363.972 81.8624 357.26 65.0093 344.223L52.7719 360.042C73.5609 376.124 98.5731 383.972 127.25 383.972V363.972ZM65.0403 344.247C48.0343 330.984 34.6174 311.479 25.1608 285.023L6.32781 291.755C16.7576 320.934 32.1049 343.924 52.7409 360.018L65.0403 344.247ZM25.1653 285.036C15.7092 258.469 10.8295 225.933 10.8295 187.182H-9.17045C-9.17045 227.503 -4.10692 262.439 6.32329 291.742L25.1653 285.036ZM10.8295 187.182C10.8295 148.674 15.7077 116.319 25.1608 89.873L6.32781 83.1412C-4.10545 112.329 -9.17045 147.091 -9.17045 187.182H10.8295ZM25.1527 89.8957C34.7302 63.3041 48.211 43.7354 65.2179 30.4721L52.9185 14.7011C32.2833 30.794 16.8816 53.8389 6.33595 83.1185L25.1527 89.8957ZM65.2246 30.4669C82.2226 17.1872 102.722 10.392 127.25 10.392V-9.60797C98.7478 -9.60797 73.7925 -1.60671 52.9117 14.7064L65.2246 30.4669ZM127.25 10.392C151.779 10.392 172.206 17.1871 189.074 30.4481L201.435 14.7252C180.661 -1.60662 155.751 -9.60797 127.25 -9.60797V10.392ZM189.129 30.4908C206.234 43.7477 219.703 63.2974 229.157 89.8603L247.999 83.1539C237.567 53.8456 222.153 30.7817 201.38 14.6825L189.129 30.4908ZM229.174 89.9085C238.736 116.343 243.67 148.684 243.67 187.182H263.67C263.67 147.081 258.544 112.306 247.982 83.1057L229.174 89.9085ZM243.67 187.182C243.67 225.933 238.791 258.469 229.335 285.036L248.177 291.742C258.607 262.439 263.67 227.503 263.67 187.182H243.67ZM229.339 285.023C219.883 311.479 206.466 330.984 189.46 344.247L201.759 360.018C222.395 343.924 237.742 320.934 248.172 291.755L229.339 285.023ZM189.491 344.223C172.638 357.26 152.077 363.972 127.25 363.972V383.972C155.927 383.972 180.939 376.124 201.728 360.042L189.491 344.223ZM127.25 344.909C157.806 344.909 181.493 329.789 197.712 301.535L180.367 291.578C167.231 314.461 149.724 324.909 127.25 324.909V344.909ZM197.712 301.535C213.636 273.798 221.057 235.324 221.057 187.182H201.057C201.057 233.736 193.8 268.18 180.367 291.578L197.712 301.535ZM221.057 187.182C221.057 155.037 217.619 127.184 210.502 103.833L191.371 109.664C197.747 130.583 201.057 156.353 201.057 187.182H221.057ZM210.516 103.88C203.548 80.6122 193.206 61.9723 178.96 48.8022L165.383 63.4876C176.233 73.5182 185.067 88.6141 191.356 109.617L210.516 103.88ZM178.995 48.8343C164.653 35.4483 147.217 28.7443 127.25 28.7443V48.7443C142.321 48.7443 154.833 53.6407 165.349 63.4554L178.995 48.8343ZM127.25 28.7443C96.8303 28.7443 73.238 44.1407 56.9529 72.6721L74.3227 82.5864C87.6304 59.2713 105.113 48.7443 127.25 48.7443V28.7443ZM56.9627 72.655C40.9307 100.615 33.4432 139.134 33.4432 187.182H53.4432C53.4432 140.769 60.7521 106.254 74.3129 82.6035L56.9627 72.655ZM33.4432 187.182C33.4432 219.312 36.8184 247.095 43.8109 270.32L62.9618 264.555C56.6968 243.746 53.4432 218.025 53.4432 187.182H33.4432ZM43.8109 270.32C50.7768 293.457 61.0578 311.978 75.1873 325.031L88.7587 310.341C78.0303 300.43 69.2535 285.452 62.9618 264.555L43.8109 270.32ZM75.2221 325.063C89.6868 338.3 107.216 344.909 127.25 344.909V324.909C112.01 324.909 99.3539 320.036 88.724 310.309L75.2221 325.063ZM381.334 361.898L377.294 371.046L377.305 371.05L377.316 371.055L381.334 361.898ZM337.832 328.339L329.785 334.276L329.813 334.313L329.84 334.35L337.832 328.339ZM320.432 278.091V268.091H309.923L310.444 278.587L320.432 278.091ZM365.176 278.091L375.144 277.285L374.401 268.091H365.176V278.091ZM377.25 308.453L369.568 314.855L369.59 314.881L369.612 314.908L377.25 308.453ZM405.126 327.984L401.396 337.263L401.396 337.263L405.126 327.984ZM513.259 304.014L505.094 298.24L505.094 298.24L513.259 304.014ZM513.614 234.945L505.205 240.357L505.219 240.379L505.234 240.401L513.614 234.945ZM484.494 210.797L480.363 219.903L480.363 219.903L484.494 210.797ZM408.5 202.097H398.5V212.097H408.5V202.097ZM408.5 163.034V153.034H398.5V163.034H408.5ZM475.616 155.222L471.34 146.182L471.321 146.191L471.302 146.2L475.616 155.222ZM501.362 133.205L493.026 127.682L493.002 127.718L492.978 127.755L501.362 133.205ZM502.605 67.6861L511.19 62.5575L511.19 62.5575L502.605 67.6861ZM479.523 46.3793L474.923 55.2584L474.944 55.2696L474.966 55.2807L479.523 46.3793ZM409.21 45.669L412.993 54.9261L413.018 54.9159L413.042 54.9056L409.21 45.669ZM382.222 65.3778L389.956 71.7161L389.978 71.69L389.999 71.6637L382.222 65.3778ZM370.858 96.2727V106.273H380.38L380.846 96.7623L370.858 96.2727ZM328.244 96.2727L318.251 95.9003L317.865 106.273H328.244V96.2727ZM345.467 46.2017L353.459 52.2123L353.471 52.1965L353.483 52.1806L345.467 46.2017ZM387.726 12.4659L383.551 3.37914L383.539 3.38452L383.527 3.38993L387.726 12.4659ZM503.315 14.0639L498.388 22.766L498.413 22.7797L498.437 22.7933L503.315 14.0639ZM540.425 49.7528L531.789 54.7958L531.789 54.7959L540.425 49.7528ZM537.229 150.072L529.213 144.093L529.197 144.115L529.181 144.136L537.229 150.072ZM493.727 180.08L490.825 170.51L483.727 172.662V180.08H493.727ZM493.727 182.92H483.727V191.406L492.1 192.787L493.727 182.92ZM547.527 212.217L539.793 218.556L539.804 218.57L539.816 218.585L547.527 212.217ZM550.723 323.545L542.47 317.899L542.465 317.905L542.461 317.912L550.723 323.545ZM507.044 360.477L511.424 369.467L511.424 369.467L507.044 360.477ZM444.011 363.972C421.725 363.972 402.236 360.148 385.351 352.74L377.316 371.055C397.127 379.746 419.423 383.972 444.011 383.972V363.972ZM385.373 352.75C368.529 345.312 355.457 335.137 345.824 322.329L329.84 334.35C341.751 350.188 357.68 362.385 377.294 371.046L385.373 352.75ZM345.88 322.403C336.469 309.647 331.275 294.818 330.419 277.595L310.444 278.587C311.482 299.479 317.889 318.15 329.785 334.276L345.88 322.403ZM320.432 288.091H365.176V268.091H320.432V288.091ZM355.209 278.896C356.311 292.542 361.063 304.65 369.568 314.855L384.932 302.051C379.232 295.211 375.935 287.078 375.144 277.285L355.209 278.896ZM369.612 314.908C377.893 324.706 388.592 332.114 401.396 337.263L408.857 318.706C398.697 314.621 390.812 309.009 384.888 301.999L369.612 314.908ZM401.396 337.263C414.207 342.413 428.219 344.909 443.301 344.909V324.909C430.448 324.909 419.01 322.788 408.857 318.706L401.396 337.263ZM443.301 344.909C460.092 344.909 475.383 341.98 488.961 335.857L480.738 317.626C470.168 322.393 457.76 324.909 443.301 324.909V344.909ZM488.961 335.857C502.469 329.765 513.414 321.111 521.423 309.789L505.094 298.24C499.372 306.33 491.378 312.828 480.738 317.626L488.961 335.857ZM521.423 309.789C529.574 298.264 533.557 284.967 533.557 270.278H513.557C513.557 281.158 510.674 290.351 505.094 298.24L521.423 309.789ZM533.557 270.278C533.557 255.168 529.785 241.454 521.994 229.488L505.234 240.401C510.699 248.795 513.557 258.636 513.557 270.278H533.557ZM522.022 229.532C514.207 217.39 502.899 208.166 488.626 201.69L480.363 219.903C491.658 225.028 499.763 231.902 505.205 240.357L522.022 229.532ZM488.626 201.69C474.203 195.147 457.081 192.097 437.619 192.097V212.097C455.089 212.097 469.217 214.847 480.363 219.903L488.626 201.69ZM437.619 192.097H408.5V212.097H437.619V192.097ZM418.5 202.097V163.034H398.5V202.097H418.5ZM408.5 173.034H437.619V153.034H408.5V173.034ZM437.619 173.034C453.264 173.034 467.455 170.21 479.931 164.243L471.302 146.2C461.998 150.65 450.857 153.034 437.619 153.034V173.034ZM479.893 164.261C492.441 158.324 502.502 149.8 509.747 138.654L492.978 127.755C487.912 135.549 480.809 141.702 471.34 146.182L479.893 164.261ZM509.699 138.727C517.19 127.42 520.773 114.318 520.773 99.8238H500.773C500.773 110.898 498.082 120.05 493.026 127.682L509.699 138.727ZM520.773 99.8238C520.773 85.9996 517.7 73.4555 511.19 62.5575L494.02 72.8146C498.4 80.1458 500.773 89.0269 500.773 99.8238H520.773ZM511.19 62.5575C504.731 51.7466 495.602 43.376 484.079 37.4778L474.966 55.2807C483.33 59.5625 489.589 65.3963 494.02 72.8146L511.19 62.5575ZM484.123 37.5001C472.609 31.5352 459.367 28.7443 444.722 28.7443V48.7443C456.828 48.7443 466.787 51.0434 474.923 55.2584L484.123 37.5001ZM444.722 28.7443C430.915 28.7443 417.77 31.2911 405.378 36.4325L413.042 54.9056C422.904 50.814 433.434 48.7443 444.722 48.7443V28.7443ZM405.428 36.412C392.972 41.5016 382.562 49.0476 374.444 59.092L389.999 71.6637C395.849 64.4259 403.432 58.8327 412.993 54.9261L405.428 36.412ZM374.487 59.0396C366.012 69.3821 361.556 81.7878 360.87 95.7831L380.846 96.7623C381.344 86.6099 384.464 78.419 389.956 71.7161L374.487 59.0396ZM370.858 86.2727H328.244V106.273H370.858V86.2727ZM338.237 96.6451C338.877 79.4888 343.995 64.7969 353.459 52.2123L337.475 40.1911C325.396 56.2523 319.032 74.9411 318.251 95.9003L338.237 96.6451ZM353.483 52.1806C363.196 39.1588 375.934 28.9387 391.924 21.5419L383.527 3.38993C364.716 12.0916 349.282 24.362 337.452 40.2227L353.483 52.1806ZM391.901 21.5527C408 14.1559 425.795 10.392 445.432 10.392V-9.60797C423.166 -9.60797 402.49 -5.32254 383.551 3.37914L391.901 21.5527ZM445.432 10.392C466.566 10.392 484.085 14.6679 498.388 22.766L508.242 5.36186C490.348 -4.76922 469.278 -9.60797 445.432 -9.60797V10.392ZM498.437 22.7933C513.1 30.9871 524.118 41.6591 531.789 54.7958L549.06 44.7098C539.45 28.2538 525.728 15.1331 508.194 5.33447L498.437 22.7933ZM531.789 54.7959C539.535 68.0591 543.386 82.2984 543.386 97.6932H563.386C563.386 78.7603 558.596 61.0393 549.06 44.7098L531.789 54.7959ZM543.386 97.6932C543.386 116.324 538.524 131.611 529.213 144.093L545.244 156.051C557.477 139.652 563.386 120.018 563.386 97.6932H543.386ZM529.181 144.136C519.897 156.722 507.261 165.526 490.825 170.51L496.629 189.649C516.888 183.506 533.254 172.306 545.276 156.009L529.181 144.136ZM483.727 180.08V182.92H503.727V180.08H483.727ZM492.1 192.787C513.033 196.24 528.65 204.96 539.793 218.556L555.261 205.879C540.599 187.988 520.349 177.177 495.355 173.054L492.1 192.787ZM539.816 218.585C551.035 232.171 556.881 249.178 556.881 270.278H576.881C576.881 245.214 569.824 223.514 555.238 205.85L539.816 218.585ZM556.881 270.278C556.881 288.109 552.061 303.881 542.47 317.899L558.976 329.192C570.929 311.723 576.881 291.984 576.881 270.278H556.881ZM542.461 317.912C532.871 331.977 519.705 343.186 502.664 351.487L511.424 369.467C531.315 359.777 547.268 346.364 558.985 329.179L542.461 317.912ZM502.664 351.487C485.75 359.728 466.273 363.972 444.011 363.972V383.972C468.862 383.972 491.406 379.219 511.424 369.467L502.664 351.487Z" fill="#F7951E" mask="url(#path-1-outside-1_32_4)"/>
</svg>
